<?xml version="1.0" encoding="utf-8"?>
<!-- Generator: Adobe Illustrator 24.3.0, SVG Export Plug-In . SVG Version: 6.00 Build 0)  -->
<svg version="1.1" id="a97b75e6-1429-4e16-873c-5658d47e4ef0"
	 xmlns="http://www.w3.org/2000/svg" xmlns:xlink="http://www.w3.org/1999/xlink" x="0px" y="0px" viewBox="0 0 824.8 438.3"
	 style="enable-background:new 0 0 824.8 438.3;" xml:space="preserve">
<style type="text/css">
	.st0{fill:#E6E6E6;}
	.st1{fill:#D50000;}
	.st2{fill:#FFB8B8;}
	.st3{fill:#2F2E41;}
	.st4{fill:#CCCCCC;}
	.st5{fill:#FFFFFF;}
</style>
<path id="b4c13b4e-8ef9-4732-a242-1b77a57c7078" class="st0" d="M819.5,437.2H360.2c-2.9,0-5.3-2.4-5.3-5.3V5.3
	c0-2.9,2.4-5.3,5.3-5.3h459.3c2.9,0,5.3,2.4,5.3,5.3v426.5C824.8,434.8,822.4,437.2,819.5,437.2L819.5,437.2z M360.2,2.1
	c-1.8,0-3.2,1.4-3.2,3.2v426.5c0,1.8,1.4,3.2,3.2,3.2h459.3c1.8,0,3.2-1.4,3.2-3.2V5.3c0-1.8-1.4-3.2-3.2-3.2L360.2,2.1z"/>
<path id="b86923e0-dd17-408d-8c65-7675907766e6" class="st0" d="M577.2,110.8c-2,0-3.6,1.6-3.6,3.6c0,2,1.6,3.6,3.6,3.6h198.9
	c2,0,3.6-1.6,3.6-3.6c0-2-1.6-3.6-3.6-3.6H577.2z"/>
<path id="b7c93af7-a9b3-4ec5-8b9c-228075bea008" class="st0" d="M577.2,132.6c-2,0-3.6,1.6-3.6,3.6c0,2,1.6,3.6,3.6,3.6h101.5
	c2,0,3.6-1.6,3.6-3.6c0-2-1.6-3.6-3.6-3.6H577.2z"/>
<path id="bf6f3c94-5d99-4a3b-bad8-b2235a5a7f19" class="st0" d="M403.4,237.8c-2,0-3.6,1.6-3.6,3.6c0,2,1.6,3.6,3.6,3.6h372.9
	c2,0,3.6-1.6,3.6-3.6c0-2-1.6-3.6-3.6-3.6H403.4z"/>
<path id="b0a6cee6-456b-42c7-b828-32d4ce813421" class="st0" d="M403.4,259.6c-2,0-3.6,1.6-3.6,3.6c0,2,1.6,3.6,3.6,3.6h275.5
	c2,0,3.6-1.6,3.6-3.6c0-2-1.6-3.6-3.6-3.6H403.4z"/>
<path id="b1178f6f-c479-4db7-b1bf-97b40cae8cd0" class="st0" d="M403.4,280.8c-2,0-3.6,1.6-3.6,3.6c0,2,1.6,3.6,3.6,3.6h372.9
	c2,0,3.6-1.6,3.6-3.6c0-2-1.6-3.6-3.6-3.6L403.4,280.8z"/>
<path id="ad9199b6-e18d-416a-bbd3-7817c0554bff" class="st0" d="M403.4,302.6c-2,0-3.6,1.6-3.6,3.6c0,2,1.6,3.6,3.6,3.6h275.5
	c2,0,3.6-1.6,3.6-3.6c0-2-1.6-3.6-3.6-3.6H403.4z"/>
<path id="f7d611df-d029-4cc6-9561-be5a6829cf65" class="st1" d="M527,187.2H238.7c-2.9,0-5.3-2.4-5.3-5.3V55.3
	c0-2.9,2.4-5.3,5.3-5.3H527c2.9,0,5.3,2.4,5.3,5.3v126.5C532.3,184.8,529.9,187.2,527,187.2z"/>
<path id="b2be1aaf-9241-4aa1-a473-dbb8e8dcff3c" class="st1" d="M774,387.2H664.7c-2.9,0-5.3-2.4-5.3-5.3v-17.5
	c0-2.9,2.4-5.3,5.3-5.3H774c2.9,0,5.3,2.4,5.3,5.3v17.5C779.3,384.8,776.9,387.2,774,387.2z"/>
<path class="st2" d="M126.4,214.1c-4.7-3.5-6.1-10.1-3.1-14.7c0.3-0.4,0.6-0.9,1-1.3l0.3-93.5l13.9,2.6l0.6,91.9
	c3.2,3.7,3.8,9,1.2,12.9C137.4,216.8,131.1,217.6,126.4,214.1z"/>
<polygon class="st2" points="198.7,423.3 213,423.3 219.8,368.1 198.7,368.1 "/>
<path class="st3" d="M195,418.6l28.2,0h0c9.9,0,18,8,18,18v0.6l-46.2,0L195,418.6z"/>
<polygon class="st2" points="65.5,423.3 79.8,423.3 86.6,368.1 65.5,368.1 "/>
<path class="st3" d="M61.9,418.6l28.2,0h0c9.9,0,18,8,18,18v0.6l-46.2,0L61.9,418.6z"/>
<path class="st3" d="M197.8,407.9l-1.2-7.2c-1.2-0.4-2.3-1.3-3-2.4c-1.3-2-1.5-4.9-0.6-8.5l-9.7-81.6L133,255.8l-32.4,78.1
	l-12.8,61.8v8.9l-25.6,3.3l1.2-8.4c-1-0.4-1.8-1.1-2.3-2.1c-1.5-2.4-1.4-6.2,0.1-11.3l0.1-0.2l-0.1-0.8c-0.1-0.5,0.3-51,15.3-76
	l15-75.9c-0.4-1.1-2.3-7.3,1.2-17.8c3.5-10.4,13.2-27.1,39.9-47.8l0.1-0.1l0.1,0c0.3-0.1,29.7-5.9,44.9,14l0.1,0.1v0.2
	c0,1.2,0,29.8-2.3,36.2l36.1,66.3c0.7,0.7,7,8,4.8,27.2l5.8,65.3c0.7,1.3,6.7,13.3,0.1,18l1.2,8.2L197.8,407.9z"/>
<path class="st1" d="M137.5,133.6c-6.8,0-15.8-2.4-21.3-13.4l-0.1-0.2l13.6-28.8c3.7-7.9,13.1-11.3,21-7.5
	c7.6,3.6,11.1,12.6,7.8,20.3l-11.7,28.1l-0.2,0.1C143.6,133.1,140.6,133.6,137.5,133.6z"/>
<path class="st1" d="M175.1,190.6l-42.8-20.2l5.9-71.8l10.7-13.1l2.1-0.4c9.5-2,19.5-1.5,28.7,1.6l0.2,0.1l17.6,37.6
	c0.1,0.2,12.8,22.6-4.7,34.4L175.1,190.6z"/>
<path class="st2" d="M233.9,167.8c-0.5,0.2-1,0.5-1.5,0.8l-45.1-20.6l-1.2-12l-18.3-0.6l0,21.4c0,3.6,2.3,6.7,5.8,7.7l54.1,15.8
	c1.5,5.6,7.3,8.9,12.9,7.4c5.6-1.5,8.9-7.3,7.4-12.9c-1.5-5.6-7.3-8.9-12.9-7.4C234.7,167.5,234.3,167.6,233.9,167.8L233.9,167.8z"
	/>
<path class="st1" d="M178.8,141c-5.1,0-10.9-1.8-16.5-7.3l-0.2-0.2l3.8-31.6c1-8.7,8.9-14.8,17.5-13.8c8.4,1,14.5,8.4,13.9,16.8
	l-2.2,30.4l-0.2,0.1C194.8,135.6,187.8,141,178.8,141z"/>
<circle class="st2" cx="167.3" cy="46.8" r="28.7"/>
<path class="st3" d="M196.6,31.6c-1.4-8.3-8.1-15.1-16-18c-7.9-2.8-16.8-1.9-24.6,1.3c-1.3,0.5-2.6,1.1-3.8,1.8
	c-2.8-5.4-9.8-8.5-16.1-8.2c-7.7,0.4-14.6,4.5-21.3,8.3s-13.8,7.6-21.5,7.5C79.3,24.1,69,11.2,55.6,7.3C39.7,2.8,23,12,18.5,28
	c-2.5,8.6-1,17.9,4.1,25.3C28.3,43,41.7,39.6,53.3,41c11.6,1.4,22.4,6.5,33.8,9.2c11.4,2.7,24.6,2.6,33.4-5.1
	c5-4.4,7.9-10.6,12.3-15.6c2.9-3.4,7.1-6.2,11.4-6.9c-4.2,3.8-7.4,8.6-9.4,13.9c-3.4,9.8-1.6,21.5,5.5,29c7.6,8,19.6,10.2,30.7,10.1
	l0.2-0.2c-3.4-5.1-6.1-12.1-2.3-17c3.7-4.8,11-4.1,16.6-6.2C193.4,49.1,198,39.9,196.6,31.6z"/>
<path class="st4" d="M274,438.3H1c-0.6,0-1-0.4-1-1s0.4-1,1-1h273c0.6,0,1,0.4,1,1S274.6,438.3,274,438.3z"/>
<path id="e2582065-92bf-48dc-a28d-04f42179e35f" class="st5" d="M369.9,94.4c-1.3,0-2.3,1.6-2.3,3.6c0,2,1,3.6,2.3,3.6h106.9
	c1.3,0,2.3-1.6,2.3-3.6c0-2-1-3.6-2.3-3.6H369.9z"/>
<path id="bb678cb9-7d76-4fbb-a84c-c380d6521528" class="st5" d="M369.9,115.4c-1.3,0-2.3,1.6-2.3,3.6c0,2,1,3.6,2.3,3.6h106.9
	c1.3,0,2.3-1.6,2.3-3.6c0-2-1-3.6-2.3-3.6H369.9z"/>
<path id="a9697f3a-b5f3-4f74-8277-57e15506e4dd" class="st5" d="M369.9,136.1c-1.3,0-2.3,1.6-2.3,3.6c0,2,1,3.6,2.3,3.6h46
	c1.3,0,2.3-1.6,2.3-3.6c0-2-1-3.6-2.3-3.6H369.9z"/>
<circle class="st5" cx="315.6" cy="118.6" r="29"/>
</svg>
