<?xml version="1.0" encoding="utf-8"?>
<!-- Generator: Adobe Illustrator 24.3.0, SVG Export Plug-In . SVG Version: 6.00 Build 0)  -->
<svg version="1.1" id="b9b3c72a-3b99-4e28-aee4-7b73d40b397f"
	 xmlns="http://www.w3.org/2000/svg" xmlns:xlink="http://www.w3.org/1999/xlink" x="0px" y="0px" viewBox="0 0 829 364.8"
	 style="enable-background:new 0 0 829 364.8;" xml:space="preserve">
<style type="text/css">
	.st0{fill:#F2F2F2;}
	.st1{fill:#FFFFFF;}
	.st2{fill:#D50000;}
	.st3{fill:#CCCCCC;}
	.st4{fill:#3F3F3F;}
	.st5{fill:#B3B3B3;}
	.st6{fill:#FFB8B8;}
	.st7{opacity:0.2;enable-background:new    ;}
	.st8{fill:#262626;}
</style>
<path class="st0" d="M246.6,300.4c-2.9,22.3-13.3,42.8-24.5,62.4c-0.4,0.7-0.8,1.3-1.1,2H104.8c-2.4-0.6-4.7-1.3-7-2
	c-13.1-4-25.5-10.1-36.7-18C18.4,314,1.9,255.8,9.3,203.6c4.6-32.4,18.8-65.5,46.5-82.9c14.6-9.2,33.4-12.2,50.2-8.8
	c0.4,0.1,0.9,0.2,1.3,0.3c14.5,3.3,27.4,11.4,34.7,24.4c13.2,23.5,5.3,52.5-1.1,78.6c-6.5,26.1-10,57.3,8.8,76.6
	c-6.2-18.2-0.1-40,14.7-52.4c11.2-9.3,26.8-12.8,41-9.9c1.4,0.3,2.7,0.6,4,1c3.2,0.9,6.3,2.2,9.2,3.8
	C240.8,246.7,249.8,275.2,246.6,300.4z"/>
<path class="st1" d="M177.7,362.8c3.2,0.8,6.4,1.4,9.7,2h-17.6c-2.3-0.6-4.6-1.3-6.9-2c-5-1.6-9.9-3.4-14.7-5.4
	c-19.4-8.1-37.3-20.4-50.8-36.6c-6.6-7.9-12-16.7-16-26.2c-4.3-10.7-7.1-22-8.2-33.5c-2.5-23.6,0-47.9,4.7-71
	c4.8-24,12.6-47.4,23.2-69.5c1.3-2.6,2.6-5.3,3.9-7.9c0.2-0.4,0.6-0.8,1-0.9c0.5-0.1,0.9,0,1.3,0.3c1,0.6,1.3,1.8,0.8,2.8
	c-10.9,21.2-19.1,43.7-24.6,67c-5.3,22.7-8.3,46.4-7.3,69.7c1,21.8,6.7,43.2,19.6,61c11.8,16.3,28.1,29.1,46.1,37.8
	C153.4,355.9,165.4,360,177.7,362.8z"/>
<path class="st1" d="M216.3,364.8h-5.2c-0.6-0.7-1.1-1.3-1.7-2c-11.8-14.3-19.8-31.4-23.2-49.7c-4.2-22.8-0.9-46.3,9.3-67
	c2.9-5.8,6.2-11.4,10-16.6c1.4,0.3,2.7,0.6,4,1c-10.1,13.3-16.8,28.9-19.8,45.3c-5.3,31.2,3.8,63.2,24.7,87
	C215.1,363.5,215.7,364.2,216.3,364.8z"/>
<path class="st0" d="M682.9,347.8c0.8,5.9,3.5,11.3,6.5,16.5c0.1,0.2,0.2,0.4,0.3,0.5h30.7c0.6-0.2,1.2-0.3,1.8-0.5
	c3.5-1.1,6.7-2.7,9.7-4.8c11.3-8.1,15.6-23.5,13.7-37.3c-1.2-8.6-5-17.3-12.3-21.9c-4-2.4-8.7-3.2-13.3-2.3c-0.1,0-0.2,0-0.4,0.1
	c-3.8,0.7-7.2,3.1-9.2,6.4c-3.5,6.2-1.4,13.9,0.3,20.7c1.7,6.9,2.6,15.1-2.3,20.2c2.3-6.6-1.3-13.8-7.9-16.1
	c-2.2-0.8-4.6-0.9-6.8-0.4c-0.4,0.1-0.7,0.2-1.1,0.3c-0.8,0.2-1.7,0.6-2.4,1C684.5,333.7,682.1,341.2,682.9,347.8z"/>
<path class="st1" d="M701.1,364.3c-0.8,0.2-1.7,0.4-2.6,0.5h4.6c0.6-0.2,1.2-0.3,1.8-0.5c1.3-0.4,2.6-0.9,3.9-1.4
	c5.2-2.1,9.8-5.4,13.4-9.7c1.7-2.1,3.2-4.4,4.2-6.9c1.1-2.8,1.9-5.8,2.2-8.8c0.5-6.3,0.1-12.6-1.2-18.7c-1.3-6.3-3.3-12.5-6.1-18.3
	c-0.3-0.7-0.7-1.4-1-2.1c0-0.1-0.2-0.2-0.3-0.2c-0.1,0-0.2,0-0.4,0.1c-0.3,0.1-0.4,0.5-0.2,0.7c2.9,5.6,5.1,11.5,6.5,17.7
	c1.5,6,2.1,12.2,1.9,18.4c-0.1,5.8-1.9,11.4-5.2,16.1c-3.2,4.3-7.4,7.7-12.2,10C707.5,362.5,704.4,363.6,701.1,364.3z"/>
<path class="st1" d="M690.9,364.8h1.4c0.2-0.2,0.3-0.4,0.4-0.5c3.1-3.8,5.2-8.3,6.1-13.1c1.1-6,0.2-12.2-2.5-17.7
	c-0.8-1.5-1.6-3-2.6-4.4c-0.4,0.1-0.7,0.2-1.1,0.3c2.7,3.5,4.4,7.6,5.2,12c1.4,8.2-1,16.7-6.5,23
	C691.3,364.5,691.1,364.7,690.9,364.8z"/>
<path class="st2" d="M406.5,212.5h-96l-1-29.5c-0.2-4.9,3.7-9,8.5-9.2c0.5,0,0.9,0,1.4,0.1l55.9,6.8h0c17.2,0,31.2,14,31.2,31.3
	V212.5z"/>
<path class="st3" d="M363.7,107.8h-66.9c-3.7,0-6.8,3-6.8,6.8c0,0,0,0,0,0v66.9c0,3.7,3,6.8,6.8,6.8c0,0,0,0,0,0h66.9
	c3.7,0,6.8-3,6.8-6.8c0,0,0,0,0,0v-66.9C370.5,110.9,367.5,107.8,363.7,107.8C363.7,107.8,363.7,107.8,363.7,107.8z"/>
<path class="st4" d="M348.7,157.9L317,164c-3.9,0.8-7.7-1.8-8.4-5.7l-2.4-12.5c-0.8-3.9,1.8-7.7,5.7-8.4l31.6-6.2
	c3.9-0.8,7.7,1.8,8.4,5.7l2.4,12.5C355.1,153.3,352.6,157.1,348.7,157.9z"/>
<path class="st1" d="M342.3,143.1l-24.1,4.7c-0.9,0.2-1.8-0.4-2-1.3c-0.2-0.9,0.4-1.8,1.3-2l0,0l24.1-4.7c0.9-0.2,1.8,0.4,2,1.3
	C343.8,142.1,343.2,143,342.3,143.1z"/>
<path class="st1" d="M337.6,150.1l-12.5,2.4c-0.9,0.2-1.8-0.4-2-1.3c-0.2-0.9,0.4-1.8,1.3-2l12.5-2.4c0.9-0.2,1.8,0.4,2,1.3
	C339.2,149,338.6,149.9,337.6,150.1z"/>
<path class="st5" d="M370.5,114.6v8.9H290v-8.9c0-3.7,3-6.8,6.8-6.8c0,0,0,0,0,0h66.9C367.5,107.8,370.5,110.9,370.5,114.6
	C370.5,114.6,370.5,114.6,370.5,114.6z"/>
<path class="st6" d="M531.3,126.3c-1.8-5.7-7.8-8.8-13.4-7.1c-0.6,0.2-1.2,0.4-1.8,0.7l-92.1-33l-4.1,23l91.8,25.2
	c3.1,5.1,9.7,6.7,14.8,3.7C530.8,136.2,532.8,131,531.3,126.3z"/>
<path class="st7" d="M531.3,126.3c-1.8-5.7-7.8-8.8-13.4-7.1c-0.6,0.2-1.2,0.4-1.8,0.7l-92.1-33l-4.1,23l91.8,25.2
	c3.1,5.1,9.7,6.7,14.8,3.7C530.8,136.2,532.8,131,531.3,126.3z"/>
<path class="st2" d="M440.3,91.1l-8.7,22.7c-1,2.5-3.7,3.7-6.2,2.8c-0.2-0.1-0.4-0.2-0.6-0.3l-21.1-11.9
	c-6.9-2.7-10.3-10.4-7.6-17.3c2.7-6.9,10.4-10.3,17.2-7.6l23.6,5.2c2.6,0.6,4.2,3.1,3.7,5.7C440.5,90.6,440.4,90.9,440.3,91.1z"/>
<path class="st2" d="M538.5,147.3l-33,15l4.3,16.3c8.4,31.5,10.6,64.3,6.5,96.6l0,0l24.1,5l20-51l-7-58L538.5,147.3z"/>
<path class="st4" d="M603.3,222.8c-21.7,0-39.4,15.8-40.2,35.5h80.4C642.6,238.6,624.9,222.8,603.3,222.8z"/>
<path class="st4" d="M586.4,226.2c-1.1-89.1-51.9-80.9-51.9-80.9s0.9,27.7,1.4,28.6c32.3,61.2-21,132.9-89,119.7
	c-1.3-0.2-2.5-0.5-3.7-0.8c-17.9-3.7-29.8-20.7-27.2-38.8c6.7-53.7-26.6-52.8-26.6-52.8h-48.7l-25.3-22.7c-3-2.7-7.7-2.5-10.4,0.5
	c-0.6,0.7-1.1,1.5-1.4,2.4l-3.3,8.8c0,0-48,5-44,52h14.8c0,1.3,0,2.7,0.2,4l110.8-0.9c6.5-0.1,12.2,5.2,12.2,11.7
	c0,6.5-5.2,11.8-11.7,11.8c-0.1,0-0.3,0-0.4,0l-17.9-0.6c-5.5,24.5,8,41,22.9,51.4c14,9.6,30.6,14.7,47.6,14.6h48.5
	c63,0,74-53,74-53C590.5,267.3,586.4,226.2,586.4,226.2z"/>
<circle class="st4" cx="600.3" cy="307.1" r="56.2"/>
<circle class="st1" cx="600.3" cy="307.1" r="13.8"/>
<circle class="st4" cx="316.3" cy="298.6" r="64.8"/>
<circle class="st1" cx="316.3" cy="298.6" r="15.9"/>
<path class="st4" d="M505.6,166.8l-11.9-32.2c-2.6-7.1,1-14.9,8.1-17.5c0,0,0,0,0,0l34-12.5c12.4-4.6,26.2,1.8,30.8,14.2
	c0,0,0,0,0,0c1,2.7,1.5,5.5,1.5,8.3c0,7.3-3.3,14.2-9,18.7c-2,1.6-4.3,2.9-6.7,3.8L505.6,166.8z"/>
<path class="st2" d="M567.6,127c0,7.1-3.2,13.9-8.8,18.3c-16-4.2-25.6-20.6-21.3-36.6c0.4-1.6,1-3.2,1.6-4.7
	c12.7-2.8,25.2,5.3,28,18C567.5,123.6,567.6,125.3,567.6,127z"/>
<ellipse class="st2" cx="265" cy="231.8" rx="14" ry="17"/>
<polygon class="st6" points="450.1,292 462.3,292 468.2,260.2 450.1,260.2 "/>
<path class="st8" d="M446.9,288l24.1,0h0c8.5,0,15.4,6.9,15.4,15.4c0,0,0,0,0,0v0.5l-39.5,0L446.9,288z"/>
<path class="st8" d="M464.3,279c-0.1,0-0.3,0-0.4,0l-17-1.2c-2.5-0.2-4.3-2.4-4.1-4.9c0-0.4,0.1-0.8,0.3-1.1l22.7-51
	c0.3-0.9,0.3-1.9-0.2-2.8c-0.5-0.9-1.3-1.5-2.2-1.8c-10.7-2.8-38.1-10.2-61.8-18.9c-10.2-3.7-16.6-9.1-19-16
	c-3.2-9.1,1.6-17.4,1.8-17.7l0.2-0.3l22.3,2l24.2,2.1l53,28.4c9.2,5,13.1,16.2,8.8,25.8l-24.4,54.8C467.7,277.9,466.1,279,464.3,279
	z"/>
<circle class="st6" cx="410.7" cy="39.7" r="24.6"/>
<polygon class="st6" points="443.1,295 455.3,295 461.2,263.2 443.1,263.2 "/>
<path class="st8" d="M439.9,291l24.1,0h0c8.5,0,15.4,6.9,15.4,15.4c0,0,0,0,0,0v0.5l-39.5,0L439.9,291z"/>
<path class="st8" d="M457.3,282c-0.1,0-0.3,0-0.4,0l-17-1.2c-2.5-0.2-4.3-2.4-4.1-4.9c0-0.4,0.1-0.8,0.3-1.1l22.7-51
	c0.3-0.9,0.3-1.9-0.2-2.8c-0.5-0.9-1.3-1.5-2.2-1.8c-10.7-2.8-38.1-10.2-61.8-18.9c-10.2-3.7-16.6-9.1-19-16
	c-3.2-9.1,1.6-17.4,1.8-17.7l0.2-0.3l22.3,2l24.2,2.1l53,28.4c9.2,5,13.1,16.2,8.8,25.8l-24.4,54.8C460.7,280.9,459.1,282,457.3,282
	z"/>
<path class="st2" d="M418.3,78.2l-26-9c0,0-16.3,12.5-8.5,43.6c4.1,16.1,2.9,33-3.4,48.3c-0.8,1.9-1.6,3.7-2.6,5.5c0,0,29,35,56,9
	l-10.5-50.5C423.3,125.2,439.8,91.7,418.3,78.2z"/>
<path class="st8" d="M413.8,65.1c-3.5-5.2-6.3-12.5-2.4-17.5c3.8-4.9,11.3-4.2,17.1-6.4c8.1-3,12.8-12.5,11.3-21.1
	s-8.3-15.6-16.5-18.5S406-0.2,398,3.1c-9.8,4.1-18.3,12-21.8,22.1s-1.6,22.1,5.7,29.8c7.9,8.3,20.2,10.5,31.6,10.4"/>
<path class="st8" d="M390.9,20.5c-4.4,3.6-11.1,2-15.9-1.2s-8.6-7.6-13.7-10.1c-9-4.3-19.9-1.5-28.7,3.4s-16.6,11.5-25.8,15.3
	s-21.1,4-28.1-3.2c-4.6,13.4,2.5,28.1,15.9,32.7c7.2,2.5,15.2,1.6,21.8-2.3c10.2-6.2,15.8-19.2,27.2-22.6c6.3-1.9,13.1-0.4,19.4,1.3
	s13,3.4,19.4,2s12.4-7.2,11.6-13.7L390.9,20.5z"/>
<path class="st6" d="M530,125.3c-2.4-5.4-8.8-7.8-14.2-5.4c-0.6,0.3-1.1,0.6-1.7,0.9l-95.5-21.4l-1.2,23.3l94.2,13.7
	c3.7,4.7,10.5,5.5,15.2,1.8C530.8,135.2,532.1,129.8,530,125.3L530,125.3z"/>
<path class="st2" d="M435.4,101.6l-5.8,23.6c-0.6,2.6-3.2,4.2-5.8,3.5c-0.2-0.1-0.5-0.1-0.7-0.2l-22.4-9.2
	c-7.2-1.8-11.5-9.1-9.7-16.2c1.8-7.1,9-11.5,16.2-9.7l24.1,2.3c2.6,0.3,4.6,2.6,4.3,5.3C435.5,101.1,435.5,101.3,435.4,101.6
	L435.4,101.6z"/>
<circle class="st2" cx="519" cy="136.8" r="7"/>
<path class="st4" d="M829,363.8c0,0.6-0.4,1-1,1H1c-0.6,0-1-0.4-1-1s0.4-1,1-1h827C828.6,362.8,829,363.3,829,363.8z"/>
</svg>
