<?xml version="1.0" encoding="utf-8"?>
<!-- Generator: Adobe Illustrator 24.3.0, SVG Export Plug-In . SVG Version: 6.00 Build 0)  -->
<svg version="1.1" id="b8725aca-9219-4e31-844c-fb8ba72acacf"
	 xmlns="http://www.w3.org/2000/svg" xmlns:xlink="http://www.w3.org/1999/xlink" x="0px" y="0px" viewBox="0 0 739 468"
	 style="enable-background:new 0 0 739 468;" xml:space="preserve">
<style type="text/css">
	.st0{fill:#890000;}
	.st1{fill:#D50000;}
	.st2{fill:#9F616A;}
	.st3{fill:#161616;}
	.st4{fill:#FFFFFF;}
	.st5{fill:#F2F2F2;}
	.st6{fill:#282828;}
	.st7{fill:#CBCBCB;}
</style>
<path class="st0" d="M611.9,467.3l2,0c-0.8-22.2-3.1-44.4-7.1-66.3c-8.6-46.9-23-77.7-42.7-91.5l-1.1,1.6
	C608.9,343.5,611.8,466.1,611.9,467.3z"/>
<path class="st0" d="M586.9,466.9l2,0c0-2.2-1.3-54.4-21.8-68.8l-1.1,1.6C585.6,413.5,586.9,466.3,586.9,466.9z"/>
<circle class="st1" cx="551.5" cy="301.3" r="10"/>
<circle class="st1" cx="556.5" cy="387.3" r="10"/>
<path class="st0" d="M591.5,317.3c-1.9,12,3,22.7,3,22.7s7.9-8.7,9.8-20.7s-3-22.7-3-22.7S593.4,305.3,591.5,317.3z"/>
<path class="st0" d="M558.8,346.5c11.5,3.9,22.9,1,22.9,1s-7.2-9.3-18.7-13.3s-22.9-1-22.9-1S547.3,342.5,558.8,346.5z"/>
<path class="st0" d="M558.5,422.6c5.2,1.6,10.7,1.9,16.1,0.7c-6.9-8.8-18.3-12.7-29.2-10C548.8,417.5,553.4,420.7,558.5,422.6z"/>
<path class="st2" d="M325.1,155.2l-64.5-33.5c0,0-21.7-23.8-35.2-34.6s-17.8-2.9-17.8-2.9l-5.7,9.5l13.8,19.2l37.3,31.6l66.7,26.1
	c3,5,9.5,6.6,14.5,3.5c5-3,6.6-9.5,3.5-14.5C335.1,155.3,329.8,153.5,325.1,155.2L325.1,155.2z"/>
<path class="st2" d="M157.4,126.2l-3.8-23.4l-10.8-2.7c0,0-8.6-2.6-10.6,14.6s-0.4,49.4-0.4,49.4l-21.9,69.3
	c-5.3,2.5-7.6,8.8-5.1,14.1c2.5,5.3,8.8,7.6,14.1,5.1c4.6-2.1,7-7.2,5.8-12.1l28.7-65.6L157.4,126.2z"/>
<polygon class="st2" points="246.5,453.9 260.6,453.9 267.4,399.5 246.5,399.5 "/>
<path class="st0" d="M242.9,449.3l27.8,0h0c9.8,0,17.7,7.9,17.7,17.7v0.6l-45.5,0L242.9,449.3z"/>
<polygon class="st2" points="92.7,453.9 106.8,453.9 113.5,399.5 92.7,399.5 "/>
<path class="st0" d="M89.1,449.3l27.8,0h0c9.8,0,17.7,7.9,17.7,17.7v0.6l-45.5,0L89.1,449.3z"/>
<path class="st3" d="M162.3,79.6l-23.4,20l19.2,60.8l4.3,13.6c0,0-26.5,24.4-42.8,92.5S76.5,425,76.5,425l56.5,16.2l46-154.1
	L233.1,408l6.2,35.8l48.1-14.2l-11.4-89.7l-56.8-155.2l5.9-41.2c0,0,8.9-20.5-6.5-42.3l-4.8-20.4l-17.3-4.3L162.3,79.6z"/>
<path class="st0" d="M201.2,68.7H138c-2.7,0-4.9-2.2-4.9-4.9V36.5c0-20.2,16.4-36.5,36.5-36.5s36.5,16.4,36.5,36.5v27.3
	C206.1,66.5,203.9,68.7,201.2,68.7z"/>
<circle class="st2" cx="177.1" cy="41.3" r="26.8"/>
<path class="st0" d="M214.8,39.3h-38.7l-0.4-5.6l-2,5.6h-6l-0.8-11l-3.9,11h-11.5v-0.5c0-16,12.9-28.9,28.9-28.9h5.5
	c16,0,28.9,12.9,28.9,28.9V39.3z"/>
<path class="st0" d="M175.8,73.8c-0.3,0-0.6,0-0.9-0.1l-28.3-5V21.9h31.2l-0.8,0.9c-10.7,12.5-2.6,32.8,3.1,43.8
	c0.9,1.6,0.7,3.6-0.4,5.1C178.8,73,177.3,73.8,175.8,73.8z"/>
<path class="st4" d="M410,319.1l-248.2,87.7c-12.8,4.5-26.8-2.2-31.3-15L87.8,271.4c-4.5-12.8,2.2-26.8,15-31.3L351,152.3
	c12.8-4.5,26.8,2.2,31.3,15l42.6,120.6C429.4,300.6,422.7,314.6,410,319.1z"/>
<path class="st5" d="M424.9,287.8l0.2,0.6c4.3,12.2-2.1,25.6-14.3,29.9l-249.4,88.2c-12.2,4.3-25.6-2.1-29.9-14.3l-0.2-0.6
	L424.9,287.8z"/>
<path class="st1" d="M146.3,268c-16.5,10.8-37.5,2.7-44.9-9.2l1.2-0.7C116.6,249.4,137.4,254.3,146.3,268z"/>
<path class="st6" d="M352.4,298.7c-4,1.4-7.7,1.4-10.8-0.2c-7.1-3.5-10.4-13.9-13-22.3c-0.8-2.4-1.5-4.7-2.3-6.6l0,0
	c-2.7-7.8,1.3-16.2,9.1-19l33.4-11.8c4-1.4,7.6-1.4,10.8,0.2c7.1,3.5,10.4,13.9,13,22.3c0.8,2.4,1.5,4.7,2.3,6.6
	c2.7,7.8-1.3,16.3-9.1,19L352.4,298.7z M327.8,269.1c0.8,1.9,1.5,4.2,2.3,6.7c2.6,8.1,5.8,18.2,12.3,21.4c2.8,1.4,5.9,1.4,9.6,0.1
	l33.4-11.8c7-2.5,10.6-10.1,8.2-17.1c-0.8-1.9-1.5-4.2-2.3-6.7c-2.6-8.1-5.8-18.2-12.3-21.4c-2.8-1.4-5.9-1.4-9.6-0.1L335.9,252
	C329,254.5,325.3,262.2,327.8,269.1z"/>
<path class="st6" d="M139.4,271.9c-5.9,2-12.2,2.4-18.2,1c-8.8-1.9-16.9-7.2-20.9-13.8l-0.4-0.7l1.8-1c14.2-8.9,35.5-4.1,44.7,10.1
	l0.4,0.6l-0.6,0.4C144,270,141.8,271.1,139.4,271.9z M101.9,259c4,5.9,11.4,10.7,19.6,12.5c7.9,1.9,16.3,0.5,23.2-3.8
	c-9-13-28.9-17.3-42.3-9L101.9,259z"/>
<path class="st6" d="M148.1,358.5c-4.2,1.7-9.1,0.9-12.6-2.1c-4.1-3.5-6-9-5.1-14.3c0.9-4.6,4.2-8.3,8.7-9.6l44.5-15.7
	c4.3-1.8,9.2-1,12.8,2c4.1,3.5,6,9,5,14.3c-0.9,4.6-4,8-8.7,9.6l-44.5,15.7C148.2,358.4,148.2,358.5,148.1,358.5z M139.5,334
	c-3.9,1.2-6.8,4.4-7.5,8.4c-0.8,4.8,0.9,9.7,4.6,12.9c3.1,2.7,7.5,3.3,11.3,1.7l44.5-15.7c4-1.1,6.9-4.4,7.7-8.5
	c0.8-4.8-0.9-9.7-4.5-12.9c-3.1-2.7-7.5-3.3-11.3-1.7l-44.5,15.7C139.6,334,139.5,334,139.5,334L139.5,334z"/>
<path class="st1" d="M352.7,263.3l-14,5c-1.9,0.7-4.1-0.3-4.7-2.3c-0.7-1.9,0.3-4.1,2.3-4.7l14-5c1.9-0.7,4.1,0.3,4.7,2.3
	C355.7,260.5,354.7,262.6,352.7,263.3L352.7,263.3z"/>
<path class="st1" d="M356.7,274.5l-14,5c-1.9,0.7-4.1-0.3-4.7-2.3c-0.7-1.9,0.3-4.1,2.3-4.7l14-5c1.9-0.7,4.1,0.3,4.7,2.3
	C359.6,271.7,358.6,273.8,356.7,274.5L356.7,274.5z"/>
<path class="st1" d="M360.7,285.7l-14,5c-1.9,0.7-4.1-0.3-4.7-2.3c-0.7-1.9,0.3-4.1,2.3-4.7l14-5c1.9-0.7,4.1,0.3,4.7,2.3
	C363.6,282.9,362.6,285,360.7,285.7z"/>
<path class="st1" d="M377.3,254.6l-14,5c-1.9,0.7-4.1-0.3-4.7-2.3c-0.7-1.9,0.3-4.1,2.3-4.7l0,0l14-5c1.9-0.7,4.1,0.3,4.7,2.3
	C380.2,251.8,379.2,253.9,377.3,254.6z"/>
<path class="st1" d="M381.2,265.8l-14,5c-1.9,0.7-4.1-0.3-4.7-2.3c-0.7-1.9,0.3-4.1,2.3-4.7l0,0l14-5c1.9-0.7,4.1,0.3,4.7,2.3
	C384.2,263,383.2,265.1,381.2,265.8L381.2,265.8L381.2,265.8z"/>
<path class="st1" d="M385.2,277l-14,5c-1.9,0.7-4.1-0.3-4.7-2.3c-0.7-1.9,0.3-4.1,2.3-4.7l14-5c1.9-0.7,4.1,0.3,4.7,2.3
	C388.2,274.2,387.1,276.3,385.2,277z"/>
<rect x="89.3" y="245.4" transform="matrix(0.9428 -0.3333 0.3333 0.9428 -68.0224 95.7435)" class="st6" width="311.4" height="1.5"/>
<path class="st6" d="M410,319.1l-248.2,87.7c-12.8,4.5-26.8-2.2-31.3-15L87.8,271.4c-4.5-12.8,2.2-26.8,15-31.3L351,152.3
	c12.8-4.5,26.8,2.2,31.3,15l42.6,120.6C429.4,300.6,422.7,314.6,410,319.1z M103.3,241.4c-12,4.3-18.3,17.4-14,29.4l42.6,120.6
	c4.3,12,17.4,18.3,29.4,14l248.2-87.7c12-4.3,18.3-17.4,14-29.4l-42.6-120.6c-4.3-12-17.4-18.3-29.4-14L103.3,241.4z"/>
<path class="st7" d="M738,468H1c-0.6,0-1-0.4-1-1s0.4-1,1-1h737c0.6,0,1,0.4,1,1S738.6,468,738,468z"/>
</svg>
